<?xml version="1.0" standalone="no"?><!DOCTYPE svg PUBLIC "-//W3C//DTD SVG 1.1//EN" "http://www.w3.org/Graphics/SVG/1.1/DTD/svg11.dtd"><svg xmlns="http://www.w3.org/2000/svg" version="1.1" width="678.781" height="249.003" xmlns:xlink="http://www.w3.org/1999/xlink" xlink="http://www.w3.org/1999/xlink" style="position:relative;overflow:hidden;" viewBox="161.167 243.497 678.781 249.003"><defs><style type="text/css">@import url(https://fonts.googleapis.com/css?family=Droid+Sans:400,700:latin);</style></defs><g><g width="220" height="227.667" transform="scale(1,1) translate(438.981,259.097)"><g transform="scale(1,1) translate(0,0)" stroke="#7F7F7F" fill="#78CED7" fill-opacity="0.45098039215686275" stroke-opacity="1"><path d="M193,88.167 L195.667,88.167 L197.833,88.833 L200,89.333 L202.167,90 L206.667,92.167 L210,95.167 L212.833,98.667 L215.167,103.167 L215.833,105.333 L216.167,107.5 L217,109.667 L217,112.333 L217,115 L216.167,117.333 L215.833,119.333 L215.167,121.667 L212.833,126.167 L210,129.333 L206.667,132 L202.167,134.667 L200,135.333 L197.833,135.833 L195.667,136.5 L193,136.5 L193,137 L193,137.667 L193,138.167 L193,139.167 L193,140.333 L193,142.667 L193,144 L193,146.667 L193,150 L193,154.167 L193,158.167 L193,163.333 L193,168.667 L192.5,169.333 L191.833,169.667 L190.333,170.333 L188,171.5 L186.5,172.667 L184.833,173.5 L183.333,174.667 L181.167,175.833 L178.833,177 L176.167,178.667 L173,180.333 L169.667,182.333 L165.833,184.667 L162.167,186.833 L157.167,189.5 L152.167,192.333 L146.833,195.5 L141.5,198.833 L135,202.167 L128.5,206 L121.5,210.333 L113.833,214.833 L105.667,219.667 L96.5,224.667 L96,224.167 L95.333,223.5 L93.833,223 L91.5,221.833 L90.167,220.833 L88.333,220.167 L86.833,219 L84.5,217.5 L82.333,216.5 L79.667,214.833 L76.5,213 L73.167,210.833 L69.333,208.833 L65.667,206.5 L60.667,203.833 L55.667,201.167 L51,197.667 L45,194.333 L38.5,191.333 L32,187.333 L25,182.833 L17.333,178.667 L9.167,173.5 L0,168.667 L0,168.333 L0,167.667 L0,166.5 L0,165.333 L0,164.5 L0,162.667 L0,160.5 L0,157.833 L0,155.167 L0,151.833 L0,147.333 L0,143 L2.833,142.667 L5.5,141.5 L10.167,139.167 L14,136.5 L18,132.5 L21,128.333 L23.167,123.167 L23.833,120.5 L24.333,118 L25,115 L25,112.333 L25,109.667 L24.333,106.667 L23.833,104.167 L23.167,101.5 L21,96.333 L18,92.167 L14,88.833 L10.167,85.5 L5.5,83.333 L2.833,82.167 L0,81.667 L0,81.167 L0,80.667 L0,79.667 L0,78.5 L0,77.333 L0,75.5 L0,73.5 L0,70.667 L0,68 L0,64.667 L0,60.167 L0,56.167 L0.667,56.167 L1,55.5 L1.667,55 L3.333,54.333 L5.5,53.167 L6.5,52 L8,51.667 L10.167,50.5 L12.5,48.667 L14.667,47.5 L17.333,46 L20.5,44.5 L23.833,42.333 L27.667,40.167 L31.333,37.833 L35.667,35.167 L40.667,32.167 L46,29.167 L52,25.833 L58,22.5 L65,18.667 L72,14.333 L79.667,9.833 L87.833,5.167 L96.5,0 L97.167,0 L97.5,0.667 L98.167,1.333 L99.833,1.667 L102,2.833 L103,4 L104.5,5.167 L106.667,6.167 L109,7.167 L111.167,8.333 L113.833,9.833 L117,11.667 L120.333,13.667 L124.167,16 L127.833,18.167 L132.333,20.667 L137.167,23.667 L142.5,27 L148.667,30.167 L154.5,33.333 L161.5,37.333 L168.5,41.667 L176.167,46 L184.5,51 L193,56.167 L193,56.333 L193,56.833 L193,57.5 L193,58.667 L193,59.833 L193,62 L193,63.667 L193,66.333 L193,69.5 L193,73.5 L193,77.833 L193,82.833 L193,88.167 z" stroke-width="3" stroke-dasharray="9,3"/></g></g><g width="220" height="227.667" transform="scale(1,1) translate(410.281,259.097)"><g transform="scale(1,1) translate(0,0)" stroke="#7F7F7F" fill="#78CED7" fill-opacity="0.45" stroke-opacity="1"><path d="M193,88.167 L195.667,88.167 L197.833,88.833 L200,89.333 L202.167,90 L206.667,92.167 L210,95.167 L212.833,98.667 L215.167,103.167 L215.833,105.333 L216.167,107.5 L217,109.667 L217,112.333 L217,115 L216.167,117.333 L215.833,119.333 L215.167,121.667 L212.833,126.167 L210,129.333 L206.667,132 L202.167,134.667 L200,135.333 L197.833,135.833 L195.667,136.5 L193,136.5 L193,137 L193,137.667 L193,138.167 L193,139.167 L193,140.333 L193,142.667 L193,144 L193,146.667 L193,150 L193,154.167 L193,158.167 L193,163.333 L193,168.667 L192.5,169.333 L191.833,169.667 L190.333,170.333 L188,171.5 L186.5,172.667 L184.833,173.5 L183.333,174.667 L181.167,175.833 L178.833,177 L176.167,178.667 L173,180.333 L169.667,182.333 L165.833,184.667 L162.167,186.833 L157.167,189.5 L152.167,192.333 L146.833,195.5 L141.5,198.833 L135,202.167 L128.5,206 L121.5,210.333 L113.833,214.833 L105.667,219.667 L96.5,224.667 L96,224.167 L95.333,223.5 L93.833,223 L91.5,221.833 L90.167,220.833 L88.333,220.167 L86.833,219 L84.5,217.5 L82.333,216.5 L79.667,214.833 L76.5,213 L73.167,210.833 L69.333,208.833 L65.667,206.5 L60.667,203.833 L55.667,201.167 L51,197.667 L45,194.333 L38.5,191.333 L32,187.333 L25,182.833 L17.333,178.667 L9.167,173.5 L0,168.667 L0,168.333 L0,167.667 L0,166.5 L0,165.333 L0,164.5 L0,162.667 L0,160.5 L0,157.833 L0,155.167 L0,151.833 L0,147.333 L0,143 L2.833,142.667 L5.5,141.5 L10.167,139.167 L14,136.5 L18,132.5 L21,128.333 L23.167,123.167 L23.833,120.5 L24.333,118 L25,115 L25,112.333 L25,109.667 L24.333,106.667 L23.833,104.167 L23.167,101.5 L21,96.333 L18,92.167 L14,88.833 L10.167,85.5 L5.5,83.333 L2.833,82.167 L0,81.667 L0,81.167 L0,80.667 L0,79.667 L0,78.5 L0,77.333 L0,75.5 L0,73.5 L0,70.667 L0,68 L0,64.667 L0,60.167 L0,56.167 L0.667,56.167 L1,55.5 L1.667,55 L3.333,54.333 L5.5,53.167 L6.5,52 L8,51.667 L10.167,50.5 L12.5,48.667 L14.667,47.5 L17.333,46 L20.5,44.5 L23.833,42.333 L27.667,40.167 L31.333,37.833 L35.667,35.167 L40.667,32.167 L46,29.167 L52,25.833 L58,22.5 L65,18.667 L72,14.333 L79.667,9.833 L87.833,5.167 L96.5,0 L97.167,0 L97.5,0.667 L98.167,1.333 L99.833,1.667 L102,2.833 L103,4 L104.5,5.167 L106.667,6.167 L109,7.167 L111.167,8.333 L113.833,9.833 L117,11.667 L120.333,13.667 L124.167,16 L127.833,18.167 L132.333,20.667 L137.167,23.667 L142.5,27 L148.667,30.167 L154.5,33.333 L161.5,37.333 L168.5,41.667 L176.167,46 L184.5,51 L193,56.167 L193,56.333 L193,56.833 L193,57.5 L193,58.667 L193,59.833 L193,62 L193,63.667 L193,66.333 L193,69.5 L193,73.5 L193,77.833 L193,82.833 L193,88.167 z" stroke-width="3" stroke-dasharray="9,3"/></g></g><g width="220" height="227.667" transform="scale(1,1) translate(376.5,258.333)"><g transform="scale(1,1) translate(0,0)" stroke="#7F7F7F" fill="#78CED7" fill-opacity="1" stroke-opacity="1"><path d="M195.667,89.333 L195.667,89.333 L198.333,89.333 L200.5,90 L202.833,90.5 L205,91.167 L209.5,93.333 L212.833,96.5 L215.833,100 L218.167,104.5 L218.833,106.667 L219.167,109 L220,111.167 L220,113.833 L220,116.5 L219.167,118.833 L218.833,121 L218.167,123.333 L215.833,127.833 L212.833,131 L209.5,133.833 L205,136.5 L202.833,137.167 L200.5,137.667 L198.333,138.333 L195.667,138.333 L195.667,138.833 L195.667,139.5 L195.667,140 L195.667,141 L195.667,142.167 L195.667,144.5 L195.667,146 L195.667,148.667 L195.667,152 L195.667,156.167 L195.667,160.333 L195.667,165.5 L195.667,171 L195.167,171.667 L194.5,172 L193,172.667 L190.667,173.833 L189,175 L187.333,175.833 L185.833,177 L183.667,178.167 L181.333,179.333 L178.667,181 L175.333,182.667 L172,184.833 L168.167,187.167 L164.333,189.333 L159.333,192 L154.333,194.833 L148.833,198.167 L143.5,201.5 L136.833,204.833 L130.333,208.667 L123.167,213.167 L115.333,217.667 L107.167,222.667 L97.833,227.667 L97.333,227.167 L96.667,226.5 L95.167,226 L92.833,224.833 L91.333,223.833 L89.5,223.167 L88,222 L85.667,220.333 L83.5,219.333 L80.833,217.667 L77.5,215.833 L74.167,213.667 L70.333,211.667 L66.5,209.333 L61.5,206.5 L56.5,203.833 L51.667,200.333 L45.667,197 L39,193.833 L32.5,189.833 L25.333,185.333 L17.5,181 L9.333,175.833 L0,171 L0,170.5 L0,169.833 L0,168.667 L0,167.5 L0,166.667 L0,164.833 L0,162.667 L0,160 L0,157.167 L0,153.833 L0,149.333 L0,144.833 L2.833,144.5 L5.5,143.333 L10.333,141 L14.167,138.333 L18.167,134.333 L21.333,130 L23.5,124.833 L24.167,122.167 L24.667,119.5 L25.333,116.5 L25.333,113.833 L25.333,111.167 L24.667,108.167 L24.167,105.5 L23.5,102.833 L21.333,97.667 L18.167,93.333 L14.167,90 L10.333,86.667 L5.5,84.5 L2.833,83.333 L0,82.833 L0,82.167 L0,81.667 L0,80.667 L0,79.5 L0,78.333 L0,76.5 L0,74.5 L0,71.667 L0,68.833 L0,65.5 L0,61 L0,56.833 L0.667,56.833 L1,56.167 L1.667,55.667 L3.333,55 L5.5,53.833 L6.667,52.667 L8.167,52.333 L10.333,51.167 L12.667,49.333 L14.833,48.167 L17.5,46.667 L20.833,45.167 L24.167,42.833 L28,40.667 L31.833,38.333 L36.167,35.667 L41.167,32.667 L46.667,29.5 L52.667,26.167 L58.833,22.833 L65.833,19 L73,14.5 L80.833,10 L89,5.167 L97.833,0 L98.5,0 L98.833,0.667 L99.5,1.333 L101.167,1.667 L103.333,2.833 L104.5,4 L106,5.167 L108.167,6.167 L110.5,7.333 L112.667,8.5 L115.333,10 L118.667,11.833 L122,13.833 L125.833,16.167 L129.667,18.333 L134.167,21 L139,24 L144.5,27.333 L150.667,30.5 L156.667,33.833 L163.667,37.833 L170.833,42.167 L178.667,46.667 L187,51.667 L195.667,56.833 L195.667,57.167 L195.667,57.667 L195.667,58.333 L195.667,59.5 L195.667,60.667 L195.667,62.833 L195.667,64.5 L195.667,67.167 L195.667,70.5 L195.667,74.5 L195.667,78.833 L195.667,84 L195.667,89.333 z" stroke-width="3" stroke-dasharray="9,3"/></g></g><g width="220.333" height="227.667" transform="scale(1,1) translate(174.833,258.333)"><g transform="scale(1,1) translate(0,0)" stroke="#435865" fill="#435865" fill-opacity="1" stroke-opacity="1"><path d="M97.667,0 L195.5,56.833 L195.5,57.167 L195.5,57.667 L195.5,58.333 L195.5,59.5 L195.5,60.667 L195.5,62.833 L195.5,64.5 L195.5,67.167 L195.5,70.5 L195.5,74.5 L195.5,78.833 L195.5,84 L195.5,89.333 L196.167,89.333 L198.833,89.333 L201.167,90 L203.333,90.5 L205.5,91.167 L209.833,93.333 L213.167,96.5 L216.5,100 L218.667,104.5 L219.167,106.667 L219.833,109 L220.333,111.167 L220.333,113.833 L220.333,116.5 L219.833,118.833 L219.167,121 L218.667,123.333 L216.5,127.833 L213.167,131 L209.833,133.833 L205.5,136.5 L203.333,137.167 L201.167,137.667 L198.833,138.333 L196.167,138.333 L195.5,138.333 L195.5,138.833 L195.5,139.5 L195.5,140 L195.5,141 L195.5,142.167 L195.5,144.5 L195.5,146 L195.5,148.667 L195.5,152 L195.5,156.167 L195.5,160.333 L195.5,165.5 L195.5,171 L194.333,171.667 L194,172 L192.833,172.667 L191.667,173.167 L190.667,174.333 L188.333,175.5 L186.167,176.5 L184,177.667 L181.333,179.333 L177.5,181.5 L173.667,183.833 L169.667,180 L165.5,177 L160.333,175 L155.5,173.833 L149.833,173.167 L144.5,173.833 L141.833,174.333 L139.667,175 L136.667,175.833 L134,177 L129.5,180.333 L125.833,184.5 L123.167,188.667 L120.167,193.833 L119.167,198.833 L118.667,201.5 L118.667,204.167 L118.667,207.167 L119.167,209.833 L119.833,212 L120.167,214.833 L119.167,215.5 L118.667,215.833 L117.5,216.5 L116.5,217 L114.833,218.167 L113.167,219.333 L110.833,220.333 L108.167,221.5 L105.5,223.167 L102.167,225.333 L97.667,227.667 L97.333,227.167 L96.667,226.5 L95,226 L92.833,224.833 L91.333,223.833 L89.5,223.167 L87.833,222 L85.667,220.333 L83.5,219.333 L80.833,217.667 L77.5,215.833 L74.167,213.667 L70.333,211.667 L66.5,209.333 L61.667,206.5 L56.5,203.833 L51.167,200.333 L45.667,197 L38.833,193.833 L32.5,189.833 L25.333,185.333 L17.5,181 L9.333,175.833 L0,171 L0,170.5 L0,169.333 L0,167.5 L0,166.667 L0,164.833 L0,163.333 L0,161.5 L0,159.333 L0,156.5 L0.667,153.833 L0.667,150.5 L0.667,147.167 L0.667,143.333 L0.667,138.833 L0.667,133.833 L0.667,129 L0.667,122.667 L0.667,116.5 L0.667,110 L0.667,102.167 L0.667,94.333 L0.667,86 L0.667,76.5 L0.667,67.167 L0.667,56.833 L1,56.833 L1.667,56.167 L2.167,55.667 L4,55 L6,53.833 L7,52.667 L8.833,52.333 L11,51.167 L12.667,49.333 L15.333,48.167 L18.167,46.667 L20.833,45.167 L24.667,42.833 L28,40.667 L32.5,38.333 L36.833,35.667 L41.833,32.667 L47.167,29.5 L52.667,26.167 L59.333,22.833 L65.833,19 L73,14.5 L80.833,10 L89,5.167 L97.667,0 z" stroke-width="1" stroke-dasharray="none"/></g></g><g width="195.833" height="227.667" transform="scale(1,1) translate(638.615,255.997)"><g transform="scale(1,1) translate(0,0)" stroke="#F5C332" fill="#F5C332" fill-opacity="1" stroke-opacity="1"><path d="M195.833,171 L98.167,227.667 L97.667,227.167 L97,227.167 L96,226.5 L94.833,225.333 L93.333,224.833 L91.667,223.833 L89.5,222.667 L86.5,221 L83.5,218.833 L79.5,217 L75.167,214.333 L70.167,211.667 L70.167,212 L67.5,215.833 L64,219.333 L60.333,222 L55.833,223.167 L51,224.167 L48.667,224.167 L46,224.167 L43.833,223.833 L41.5,223.167 L39.333,222 L36.667,221 L32.833,218.167 L29.5,214.833 L27.333,210.5 L25.833,206 L25.167,201.5 L25.167,199.333 L25.167,197 L25.833,194.333 L26.167,192 L26.833,189.833 L27.833,187.5 L27.833,187.167 L27.333,186.5 L26.833,186.5 L25.833,186 L24.667,184.833 L22.833,184.5 L21.333,183.333 L19,182.167 L16.333,180.333 L13.5,178.833 L9.667,176.5 L5.333,173.833 L0.333,171 L0.333,170.5 L0.333,169.833 L0.333,168.667 L0.333,167.5 L0.333,166.667 L0.333,164.833 L0.333,162.667 L0.333,160 L0.333,157.167 L0.333,153.833 L0.333,149.333 L0,144.833 L2.667,144.5 L5.333,143.333 L10.333,141 L14.667,138.333 L18,134.333 L21.333,130 L23.5,124.833 L24,122.167 L25.167,119.5 L25.167,116.5 L25.167,113.833 L25.167,111.167 L24.667,108.167 L24,105.5 L23.5,102.833 L21.333,97.667 L18,93.333 L14.167,90 L10.333,86.667 L5.333,84.5 L2.667,83.333 L0,82.833 L0,82.167 L0,81.667 L0,80.667 L0,79.5 L0,78.333 L0,76.5 L0,74.5 L0,71.667 L0,68.833 L0,65.5 L0,61 L0,56.833 L0.333,56.833 L1,56.167 L1.5,55.667 L3.333,55 L5.333,53.833 L6.333,52.667 L8.167,52.333 L10.333,51.167 L12.333,49.333 L14.667,48.167 L17.5,46.667 L20.667,45.167 L24,42.833 L27.833,40.667 L31.833,38.333 L36,35.667 L41.167,32.667 L46.5,29.5 L52.5,26.167 L58.667,22.833 L65.833,19 L73,14.5 L80.5,10 L88.833,5.167 L97.667,0 L98.167,0 L98.833,0.667 L99.333,1.333 L100.833,1.667 L103,2.833 L104.167,4 L106,5.167 L108,6.167 L110.167,7.333 L112.5,8.5 L115.333,10 L118.5,11.833 L121.833,13.833 L125.5,16.167 L129.5,18.333 L133.833,21 L139,24 L144.333,27.333 L150.333,30.5 L156.333,33.833 L163.667,37.833 L170.833,42.167 L178.333,46.667 L186.667,51.667 L195.833,56.833 L195.833,57.167 L195.833,58.333 L195.833,60 L195.833,61 L195.833,62.833 L195.833,64.5 L195.833,66.167 L195.833,68.167 L195.833,71.167 L195.833,73.833 L195.833,77.167 L195.833,80.667 L195.833,84.5 L195.833,88.833 L195.833,93.833 L195.833,99.5 L195.833,104.833 L195.833,111.167 L195.833,118.333 L195.833,125.5 L195.833,133.167 L195.833,141.5 L195.833,151 L195.833,160.333 L195.833,171 z" stroke-width="1" stroke-dasharray="none"/></g></g><g width="111.167" height="223.958" transform="scale(1,1) translate(400.833,261)"><g stroke="#FFFFFF" opacity="1" stroke-width="0" stroke-dasharray="none" width="111.167" height="223.958" transform="scale(1,1) translate(0,0)" fill="none" stroke-opacity="1"><rect width="111.167" height="223.958"/></g><g width="111.23046112060547" height="223.9583282470703" transform="scale(1,1) translate(0,0)"><text width="111.23046112060547" height="223.9583282470703" transform="scale(1,1) translate(0,0)" xml:space="preserve"><tspan xml:space="preserve" text-rendering="optimizeSpeed" font-size="200" font-weight="bold" font-style="normal" fill="#FFFFFF" opacity="0.2" x="0" text-anchor="start" y="181.25" textLength="111.23046112060547" style="font-family: Arial, Helvetica Neue, Helvetica, sans-serif;">2</tspan></text></g></g><g width="111.167" height="223.958" transform="scale(1,1) translate(652.948,258.664)"><g stroke="#FFFFFF" opacity="1" stroke-width="0" stroke-dasharray="none" width="111.167" height="223.958" transform="scale(1,1) translate(0,0)" fill="none" stroke-opacity="1"><rect width="111.167" height="223.958"/></g><g width="111.23046112060547" height="223.9583282470703" transform="scale(1,1) translate(0,0)"><text width="111.23046112060547" height="223.9583282470703" transform="scale(1,1) translate(0,0)" xml:space="preserve"><tspan xml:space="preserve" text-rendering="optimizeSpeed" font-size="200" font-weight="bold" font-style="normal" fill="#FFFFFF" opacity="0.2" x="0" text-anchor="start" y="181.25" textLength="111.23046112060547" style="font-family: Arial, Helvetica Neue, Helvetica, sans-serif;">3</tspan></text></g></g><g width="111.167" height="223.958" transform="scale(1,1) translate(173.167,261)"><g stroke="#FFFFFF" opacity="1" stroke-width="0" stroke-dasharray="none" width="111.167" height="223.958" transform="scale(1,1) translate(0,0)" fill="none" stroke-opacity="1"><rect width="111.167" height="223.958"/></g><g width="111.23046112060547" height="223.9583282470703" transform="scale(1,1) translate(0,0)"><text width="111.23046112060547" height="223.9583282470703" transform="scale(1,1) translate(0,0)" xml:space="preserve"><tspan xml:space="preserve" text-rendering="optimizeSpeed" font-size="200" font-weight="bold" font-style="normal" fill="#FFFFFF" opacity="0.2" x="0" text-anchor="start" y="181.25" textLength="111.23046112060547" style="font-family: Arial, Helvetica Neue, Helvetica, sans-serif;">1</tspan></text></g></g><g width="155.667" height="108.333" transform="scale(1,1) translate(204.333,318.167)"><g stroke="#FFFFFF" opacity="1" stroke-width="0" stroke-dasharray="none" width="155.667" height="108.333" transform="scale(1,1) translate(0,0)" fill="none" stroke-opacity="1"><rect width="155.667" height="108.333"/></g><g width="150" height="102.66666666666666" transform="scale(1,1) translate(2.833,2.833)"><text width="150" height="19.79166603088379" transform="scale(1,1) translate(0,41.437500317891434)" xml:space="preserve"><tspan xml:space="preserve" text-rendering="optimizeSpeed" font-size="16.666666666666668" font-weight="normal" font-style="normal" fill="#FFFFFF" opacity="1" x="0" text-anchor="start" y="15.625" textLength="105.0537109375" style="font-family: Droid Sans, Helvetica Neue, Helvetica, sans-serif;">Input streams</tspan></text></g></g><g width="155.333" height="108.333" transform="scale(1,1) translate(409.667,318.167)"><g stroke="#FFFFFF" opacity="1" stroke-width="0" stroke-dasharray="none" width="155.333" height="108.333" transform="scale(1,1) translate(0,0)" fill="none" stroke-opacity="1"><rect width="155.333" height="108.333"/></g><g width="149.66666666666666" height="102.66666666666666" transform="scale(1,1) translate(2.833,2.833)"><text width="149.66666666666666" height="19.79166603088379" transform="scale(1,1) translate(0,41.437500317891434)" xml:space="preserve"><tspan xml:space="preserve" text-rendering="optimizeSpeed" font-size="16.666666666666668" font-weight="normal" font-style="normal" fill="#FFFFFF" opacity="1" x="0" text-anchor="start" y="15.625" textLength="141.69923400878906" style="font-family: Droid Sans, Helvetica Neue, Helvetica, sans-serif;">Transform streams</tspan></text></g></g><g width="155.333" height="108.333" transform="scale(1,1) translate(672.448,315.831)"><g stroke="#FFFFFF" opacity="1" stroke-width="0" stroke-dasharray="none" width="155.333" height="108.333" transform="scale(1,1) translate(0,0)" fill="none" stroke-opacity="1"><rect width="155.333" height="108.333"/></g><g width="149.66666666666666" height="102.66666666666666" transform="scale(1,1) translate(2.833,2.833)"><text width="149.66666666666666" height="19.79166603088379" transform="scale(1,1) translate(0,41.437500317891434)" xml:space="preserve"><tspan xml:space="preserve" text-rendering="optimizeSpeed" font-size="16.666666666666668" font-weight="normal" font-style="normal" fill="#FFFFFF" opacity="1" x="0" text-anchor="start" y="15.625" textLength="117.42350769042969" style="font-family: Droid Sans, Helvetica Neue, Helvetica, sans-serif;">Output streams</tspan></text></g></g></g></svg>