<?xml version="1.0" standalone="no"?><!DOCTYPE svg PUBLIC "-//W3C//DTD SVG 1.1//EN" "http://www.w3.org/Graphics/SVG/1.1/DTD/svg11.dtd"><svg xmlns="http://www.w3.org/2000/svg" version="1.1" width="414.341" height="245.169" xmlns:xlink="http://www.w3.org/1999/xlink" xlink="http://www.w3.org/1999/xlink" style="position:relative;overflow:hidden;" viewBox="162.333 245.331 414.341 245.169"><defs><style type="text/css">@import url(https://fonts.googleapis.com/css?family=Droid+Sans:400,700:latin);</style></defs><g><g width="220.333" height="227.667" transform="scale(1,1) translate(174.833,258.333)"><g transform="scale(1,1) translate(0,0)" stroke="#435865" fill="#435865" fill-opacity="1" stroke-opacity="1"><path d="M97.223,0 L194.613,56.584 L194.613,56.584 L194.613,56.916 L194.613,57.413 L194.613,58.077 L194.613,59.239 L194.613,60.4 L194.613,62.557 L194.613,64.217 L194.613,66.872 L194.613,70.19 L194.613,74.173 L194.613,78.487 L194.613,83.631 L194.613,88.941 L195.276,88.941 L195.276,88.941 L197.931,88.941 L200.254,89.605 L202.41,90.102 L204.567,90.766 L208.881,92.923 L212.199,96.076 L215.517,99.561 L217.674,104.041 L218.172,106.198 L218.836,108.521 L219.333,110.678 L219.333,113.333 L219.333,115.988 L218.836,118.311 L218.172,120.469 L217.674,122.792 L215.517,127.272 L212.199,130.425 L208.881,133.245 L204.567,135.9 L202.41,136.564 L200.254,137.062 L197.931,137.726 L195.276,137.726 L195.276,137.726 L194.613,137.726 L194.613,137.726 L194.613,138.224 L194.613,138.887 L194.613,139.385 L194.613,140.381 L194.613,141.542 L194.613,143.865 L194.613,145.359 L194.613,148.014 L194.613,151.332 L194.613,155.481 L194.613,159.629 L194.613,164.773 L194.613,170.249 L194.613,170.249 L194.613,170.249 L193.451,170.913 L193.12,171.245 L191.958,171.908 L190.797,172.406 L189.801,173.568 L187.479,174.729 L185.322,175.725 L183.165,176.886 L180.51,178.546 L176.694,180.703 L172.878,183.026 L168.897,179.209 L164.749,176.223 L159.606,174.231 L154.794,173.07 L149.153,172.406 L143.844,173.07 L141.19,173.568 L139.033,174.231 L136.046,175.061 L133.392,176.223 L128.912,179.541 L125.262,183.69 L122.608,187.838 L119.621,192.982 L118.626,197.96 L118.128,200.615 L118.128,203.27 L118.128,206.257 L118.626,208.912 L119.289,211.069 L119.621,213.89 L119.621,213.89 L119.621,213.89 L118.626,214.553 L118.128,214.885 L116.967,215.549 L115.971,216.047 L114.312,217.208 L112.653,218.37 L110.33,219.366 L107.676,220.527 L105.021,222.186 L101.703,224.344 L97.223,226.667 L97.223,226.667 L97.223,226.667 L96.892,226.169 L96.228,225.505 L94.569,225.007 L92.412,223.846 L90.919,222.85 L89.094,222.186 L87.435,221.025 L85.278,219.366 L83.121,218.37 L80.466,216.711 L77.148,214.885 L73.83,212.728 L70.014,210.737 L66.198,208.414 L61.387,205.593 L56.244,202.938 L50.934,199.453 L45.459,196.135 L38.657,192.982 L32.352,189 L25.218,184.519 L17.421,180.205 L9.291,175.061 L0,170.249 L0,170.249 L0,170.249 L0,169.751 L0,168.59 L0,166.764 L0,165.935 L0,164.109 L0,162.616 L0,160.791 L0,158.633 L0,155.813 L0.664,153.158 L0.664,149.839 L0.664,146.52 L0.664,142.704 L0.664,138.224 L0.664,133.245 L0.664,128.433 L0.664,122.128 L0.664,115.988 L0.664,109.517 L0.664,101.718 L0.664,93.919 L0.664,85.622 L0.664,76.164 L0.664,66.872 L0.664,56.584 L0.664,56.584 L0.995,56.584 L1.659,55.92 L2.157,55.422 L3.982,54.758 L5.973,53.597 L6.968,52.435 L8.793,52.103 L10.95,50.942 L12.609,49.117 L15.264,47.955 L18.084,46.462 L20.739,44.968 L24.555,42.645 L27.873,40.488 L32.352,38.165 L36.666,35.51 L41.643,32.523 L46.953,29.37 L52.428,26.052 L59.064,22.733 L65.535,18.917 L72.669,14.436 L80.466,9.956 L88.596,5.144 L97.223,0 z" stroke-width="1" stroke-dasharray="none"/></g></g><g width="195.833" height="227.667" transform="scale(1,1) translate(376.341,257.831)"><g transform="scale(1,1) translate(0,0)" stroke="#F5C332" fill="#F5C332" fill-opacity="1" stroke-opacity="1"><path d="M194.833,170.249 L97.665,226.667 L97.665,226.667 L97.665,226.667 L97.168,226.169 L96.505,226.169 L95.51,225.505 L94.349,224.344 L92.857,223.846 L91.199,222.85 L89.043,221.689 L86.058,220.029 L83.074,217.872 L79.094,216.047 L74.783,213.392 L69.808,210.737 L69.808,211.069 L69.808,211.069 L67.155,214.885 L63.673,218.37 L60.025,221.025 L55.548,222.186 L50.74,223.182 L48.418,223.182 L45.765,223.182 L43.61,222.85 L41.288,222.186 L39.132,221.025 L36.479,220.029 L32.666,217.208 L29.349,213.89 L27.194,209.575 L25.701,205.095 L25.038,200.615 L25.038,198.458 L25.038,196.135 L25.701,193.48 L26.033,191.157 L26.696,189 L27.691,186.676 L27.691,186.676 L27.691,186.345 L27.691,186.345 L27.691,186.345 L27.194,185.681 L26.696,185.681 L25.701,185.183 L24.541,184.021 L22.717,183.69 L21.224,182.528 L18.903,181.367 L16.25,179.541 L13.431,178.048 L9.617,175.725 L5.306,173.07 L0.332,170.249 L0.332,170.249 L0.332,169.751 L0.332,169.751 L0.332,169.087 L0.332,167.926 L0.332,166.764 L0.332,165.935 L0.332,164.109 L0.332,161.952 L0.332,159.297 L0.332,156.476 L0.332,153.158 L0.332,148.677 L0,144.197 L2.653,143.865 L5.306,142.704 L10.281,140.381 L14.592,137.726 L17.908,133.743 L21.224,129.429 L23.38,124.285 L23.877,121.63 L25.038,118.975 L25.038,115.988 L25.038,113.333 L25.038,110.678 L24.541,107.692 L23.877,105.037 L23.38,102.382 L21.224,97.238 L17.908,92.923 L14.094,89.605 L10.281,86.286 L5.306,84.129 L2.653,82.967 L0,82.469 L0,82.469 L0,81.806 L0,81.806 L0,81.308 L0,80.312 L0,79.151 L0,77.989 L0,76.164 L0,74.173 L0,71.352 L0,68.531 L0,65.212 L0,60.732 L0,56.584 L0,56.584 L0.332,56.584 L0.995,55.92 L1.492,55.422 L3.316,54.758 L5.306,53.597 L6.301,52.435 L8.125,52.103 L10.281,50.942 L12.27,49.117 L14.592,47.955 L17.411,46.462 L20.561,44.968 L23.877,42.645 L27.691,40.488 L31.671,38.165 L35.816,35.51 L40.956,32.523 L46.263,29.37 L52.232,26.052 L58.367,22.733 L65.497,18.917 L72.627,14.436 L80.089,9.956 L88.38,5.144 L97.168,0 L97.168,0 L97.665,0 L98.329,0.664 L98.826,1.327 L100.318,1.659 L102.474,2.821 L103.635,3.982 L105.459,5.144 L107.449,6.14 L109.604,7.301 L111.926,8.463 L114.744,9.956 L117.895,11.781 L121.211,13.773 L124.859,16.096 L128.839,18.253 L133.15,20.908 L138.29,23.895 L143.596,27.213 L149.566,30.366 L155.535,33.685 L162.831,37.667 L169.961,41.981 L177.423,46.462 L185.713,51.44 L194.833,56.584 L194.833,56.584 L194.833,56.584 L194.833,56.916 L194.833,58.077 L194.833,59.736 L194.833,60.732 L194.833,62.557 L194.833,64.217 L194.833,65.876 L194.833,67.867 L194.833,70.854 L194.833,73.509 L194.833,76.828 L194.833,80.312 L194.833,84.129 L194.833,88.443 L194.833,93.421 L194.833,99.063 L194.833,104.373 L194.833,110.678 L194.833,117.814 L194.833,124.949 L194.833,132.582 L194.833,140.878 L194.833,150.337 L194.833,159.629 L194.833,170.249 z" stroke-width="1" stroke-dasharray="none"/></g></g><g width="155.667" height="108.333" transform="scale(1,1) translate(204.333,318.167)"><g stroke="#FFFFFF" opacity="1" stroke-width="0" stroke-dasharray="none" width="155.667" height="108.333" transform="scale(1,1) translate(0,0)" fill="none" stroke-opacity="1"><rect width="155.667" height="108.333"/></g><g width="150" height="102.66666666666666" transform="scale(1,1) translate(2.833,2.833)"><text width="150" height="19.79166603088379" transform="scale(1,1) translate(0,41.437500317891434)" xml:space="preserve"><tspan xml:space="preserve" text-rendering="optimizeSpeed" font-size="16.666666666666668" font-weight="normal" font-style="normal" fill="#FFFFFF" opacity="1" x="0" text-anchor="start" y="15.625" textLength="105.0537109375" style="font-family: Droid Sans, Helvetica Neue, Helvetica, sans-serif;">Input streams</tspan></text></g></g><g width="155.333" height="108.333" transform="scale(1,1) translate(410.174,317.664)"><g stroke="#FFFFFF" opacity="1" stroke-width="0" stroke-dasharray="none" width="155.333" height="108.333" transform="scale(1,1) translate(0,0)" fill="none" stroke-opacity="1"><rect width="155.333" height="108.333"/></g><g width="149.66666666666666" height="102.66666666666666" transform="scale(1,1) translate(2.833,2.833)"><text width="149.66666666666666" height="19.79166603088379" transform="scale(1,1) translate(0,41.437500317891434)" xml:space="preserve"><tspan xml:space="preserve" text-rendering="optimizeSpeed" font-size="16.666666666666668" font-weight="normal" font-style="normal" fill="#FFFFFF" opacity="1" x="0" text-anchor="start" y="15.625" textLength="117.42350769042969" style="font-family: Droid Sans, Helvetica Neue, Helvetica, sans-serif;">Output streams</tspan></text></g></g></g></svg>